<svg width="19" height="24" viewBox="0 0 19 24" fill="none" xmlns="http://www.w3.org/2000/svg">
<path d="M7.1547 5.505C7.16042 5.3187 7.209 5.1363 7.2966 4.97227C7.38421 4.80824 7.50842 4.66709 7.65939 4.56C7.72238 4.51226 7.80155 4.49176 7.8795 4.50302C7.95744 4.51427 8.02777 4.55635 8.07501 4.62C8.09841 4.65152 8.11542 4.68738 8.1251 4.72555C8.13478 4.76371 8.13692 4.80343 8.1314 4.84243C8.12589 4.88143 8.11283 4.91895 8.09297 4.95285C8.0731 4.98675 8.04683 5.01636 8.01564 5.04C7.93838 5.09116 7.874 5.15984 7.82761 5.24056C7.78123 5.32129 7.75412 5.41183 7.74845 5.505C7.75367 5.59869 7.78056 5.68983 7.82697 5.77111C7.87337 5.85239 7.93799 5.92154 8.01564 5.973C8.167 6.08039 8.29146 6.22202 8.37908 6.38661C8.4667 6.55119 8.51507 6.73418 8.52033 6.921C8.51461 7.1073 8.46603 7.2897 8.37842 7.45373C8.29082 7.61776 8.16661 7.75891 8.01564 7.866C7.96425 7.90495 7.90175 7.926 7.83751 7.926C7.79143 7.926 7.74597 7.91516 7.70475 7.89433C7.66352 7.8735 7.62767 7.84326 7.60001 7.806C7.57662 7.77448 7.5596 7.73862 7.54993 7.70046C7.54025 7.66229 7.53811 7.62258 7.54362 7.58357C7.54914 7.54457 7.5622 7.50705 7.58206 7.47315C7.60192 7.43925 7.6282 7.40964 7.65939 7.386C7.73665 7.33484 7.80103 7.26616 7.84742 7.18544C7.8938 7.10472 7.9209 7.01417 7.92658 6.921C7.92136 6.82731 7.89447 6.73617 7.84806 6.65489C7.80166 6.57361 7.73704 6.50446 7.65939 6.453C7.50802 6.34561 7.38357 6.20398 7.29595 6.0394C7.20833 5.87481 7.15996 5.69182 7.1547 5.505V5.505ZM9.44064 6.453C9.51829 6.50446 9.58291 6.57361 9.62931 6.65489C9.67572 6.73617 9.70261 6.82731 9.70783 6.921C9.70215 7.01417 9.67505 7.10472 9.62867 7.18544C9.58228 7.26616 9.5179 7.33484 9.44064 7.386C9.37765 7.43374 9.33601 7.50481 9.32487 7.58357C9.31374 7.66234 9.33402 7.74235 9.38126 7.806C9.40892 7.84326 9.44478 7.8735 9.486 7.89433C9.52722 7.91516 9.57268 7.926 9.61876 7.926C9.683 7.926 9.7455 7.90495 9.79689 7.866C9.94786 7.75891 10.0721 7.61776 10.1597 7.45373C10.2473 7.2897 10.2959 7.1073 10.3016 6.921C10.2963 6.73418 10.248 6.55119 10.1603 6.38661C10.0727 6.22202 9.94825 6.08039 9.79689 5.973C9.71924 5.92154 9.65462 5.85239 9.60822 5.77111C9.56181 5.68983 9.53492 5.59869 9.5297 5.505C9.53537 5.41183 9.56248 5.32129 9.60886 5.24056C9.65525 5.15984 9.71963 5.09116 9.79689 5.04C9.85988 4.99226 9.90152 4.92119 9.91266 4.84243C9.92379 4.76366 9.90351 4.68365 9.85626 4.62C9.80902 4.55635 9.73869 4.51427 9.66075 4.50302C9.5828 4.49176 9.50363 4.51226 9.44064 4.56C9.28967 4.66709 9.16546 4.80824 9.07785 4.97227C8.99025 5.1363 8.94167 5.3187 8.93595 5.505C8.94121 5.69182 8.98958 5.87481 9.0772 6.0394C9.16482 6.20398 9.28927 6.34561 9.44064 6.453ZM5.87814 6.453C5.95579 6.50446 6.02041 6.57361 6.06681 6.65489C6.11322 6.73617 6.14011 6.82731 6.14533 6.921C6.13965 7.01417 6.11255 7.10472 6.06617 7.18544C6.01978 7.26616 5.9554 7.33484 5.87814 7.386C5.84695 7.40964 5.82067 7.43925 5.80081 7.47315C5.78095 7.50705 5.76789 7.54457 5.76237 7.58357C5.75686 7.62258 5.759 7.66229 5.76868 7.70046C5.77835 7.73862 5.79537 7.77448 5.81876 7.806C5.84642 7.84326 5.88227 7.8735 5.9235 7.89433C5.96472 7.91516 6.01018 7.926 6.05626 7.926C6.1205 7.926 6.183 7.90495 6.23439 7.866C6.38536 7.75891 6.50957 7.61776 6.59717 7.45373C6.68478 7.2897 6.73336 7.1073 6.73908 6.921C6.73382 6.73418 6.68545 6.55119 6.59783 6.38661C6.51021 6.22202 6.38576 6.08039 6.23439 5.973C6.15674 5.92154 6.09212 5.85239 6.04572 5.77111C5.99931 5.68983 5.97242 5.59869 5.9672 5.505C5.97287 5.41183 5.99998 5.32129 6.04636 5.24056C6.09275 5.15984 6.15713 5.09116 6.23439 5.04C6.26558 5.01636 6.29185 4.98675 6.31172 4.95285C6.33158 4.91895 6.34464 4.88143 6.35016 4.84243C6.35567 4.80343 6.35353 4.76371 6.34385 4.72555C6.33418 4.68738 6.31716 4.65152 6.29376 4.62C6.24652 4.55635 6.17619 4.51427 6.09825 4.50302C6.0203 4.49176 5.94113 4.51226 5.87814 4.56C5.72717 4.66709 5.60296 4.80824 5.51535 4.97227C5.42775 5.1363 5.37917 5.3187 5.37345 5.505C5.37871 5.69182 5.42708 5.87481 5.5147 6.0394C5.60232 6.20398 5.72677 6.34561 5.87814 6.453V6.453ZM7.9147 11.448L7.89392 11.541C7.78796 12.0738 7.8611 12.627 8.10173 13.113C8.12292 13.1548 8.13411 13.201 8.13439 13.248V14.553C8.51142 14.337 8.79048 13.731 8.79048 13.053C8.79048 12.213 8.39564 11.514 7.9147 11.448ZM7.38923 12.918C7.35561 12.8076 7.32786 12.6954 7.30611 12.582V12.522C7.2883 12.414 7.27642 12.303 7.26751 12.192V12.162C7.2601 12.0451 7.2601 11.9279 7.26751 11.811C7.26602 11.798 7.26602 11.785 7.26751 11.772C7.00918 12.1416 6.8759 12.5857 6.88751 13.038C6.88751 13.731 7.16658 14.337 7.54361 14.538V13.317C7.49395 13.2086 7.45034 13.0974 7.41298 12.984L7.38923 12.918ZM12.0116 8.499C12.7686 10.3713 12.9009 12.4419 12.3886 14.397L11.1239 19.197C11.1065 19.2624 11.0677 19.32 11.0138 19.3603C10.9599 19.4006 10.8941 19.4213 10.827 19.419H4.83908C4.77205 19.4213 4.70623 19.4006 4.65232 19.3603C4.59841 19.32 4.5596 19.2624 4.5422 19.197L3.28642 14.466C2.7587 12.4893 2.89123 10.3918 3.66345 8.499C3.68592 8.44374 3.72419 8.39652 3.77338 8.36338C3.82257 8.33024 3.88043 8.3127 3.93955 8.313H11.7355C11.7946 8.3127 11.8525 8.33024 11.9016 8.36338C11.9508 8.39652 11.9891 8.44374 12.0116 8.499V8.499ZM4.12064 12.399C4.11864 12.4384 4.12435 12.4778 4.13745 12.515C4.15055 12.5522 4.17078 12.5864 4.19698 12.6156C4.22318 12.6449 4.25483 12.6686 4.29013 12.6855C4.32542 12.7024 4.36367 12.7121 4.40267 12.714H4.41751C4.49625 12.714 4.57176 12.6824 4.62744 12.6261C4.68311 12.5699 4.71439 12.4936 4.71439 12.414C4.74993 11.658 4.91152 10.9136 5.19236 10.212C5.22228 10.1384 5.22204 10.0558 5.1917 9.98239C5.16135 9.90897 5.10339 9.85074 5.03056 9.8205C4.95773 9.79027 4.876 9.79051 4.80334 9.82117C4.73068 9.85183 4.67306 9.9104 4.64314 9.984C4.33601 10.7536 4.15937 11.5701 4.12064 12.399V12.399ZM5.88408 18.135L4.92814 14.49C4.84141 14.1582 4.77988 13.8202 4.74408 13.479C4.73998 13.4396 4.72825 13.4014 4.70955 13.3666C4.69085 13.3318 4.66554 13.301 4.63508 13.2761C4.60462 13.2512 4.5696 13.2325 4.53201 13.2213C4.49443 13.21 4.45502 13.2064 4.41603 13.2105C4.37704 13.2146 4.33925 13.2265 4.30479 13.2454C4.27034 13.2643 4.23991 13.2899 4.21524 13.3206C4.19056 13.3514 4.17213 13.3868 4.161 13.4248C4.14986 13.4628 4.14623 13.5026 4.15033 13.542C4.19063 13.9145 4.25811 14.2835 4.3522 14.646L5.30814 18.291C5.32554 18.3564 5.36435 18.414 5.41826 18.4543C5.47216 18.4946 5.53799 18.5153 5.60501 18.513C5.63065 18.5161 5.65656 18.5161 5.6822 18.513C5.72029 18.502 5.75582 18.4834 5.7867 18.4584C5.81757 18.4333 5.84317 18.4022 5.86198 18.367C5.8808 18.3318 5.89244 18.2931 5.89624 18.2533C5.90003 18.2134 5.8959 18.1732 5.88408 18.135V18.135ZM9.38423 13.035C9.38423 11.802 8.70439 10.839 7.83751 10.839C7.79406 10.835 7.75034 10.835 7.70689 10.839C7.67534 10.8351 7.64344 10.8351 7.61189 10.839V10.839C6.85189 11.001 6.30267 11.913 6.30267 13.011C6.30267 14.244 6.98251 15.207 7.84939 15.207C8.71626 15.207 9.38423 14.271 9.38423 13.038V13.035ZM14.7814 9.9C14.7245 9.84518 14.6492 9.81411 14.5706 9.813H12.7389C12.7835 10.011 12.8191 10.212 12.8547 10.413H14.256C14.1995 11.073 13.9591 12.645 12.8933 13.341C12.8616 13.591 12.8171 13.84 12.7597 14.088C14.8378 13.275 14.8675 10.251 14.8675 10.113C14.8664 10.0336 14.8357 9.95749 14.7814 9.9V9.9Z" fill="#DE8A59"/>
</svg>
