<svg width="20" height="24" viewBox="0 0 20 24" fill="none" xmlns="http://www.w3.org/2000/svg">
<path d="M10.4299 3.939C10.4352 3.76569 10.4826 3.59596 10.5683 3.44335C10.654 3.29074 10.7757 3.15947 10.9236 3.06C10.9899 3.01226 11.0733 2.99176 11.1553 3.00302C11.2374 3.01427 11.3114 3.05635 11.3611 3.12C11.4108 3.18365 11.4322 3.26366 11.4205 3.34243C11.4088 3.42119 11.3649 3.49226 11.2986 3.54C11.2286 3.58389 11.1702 3.64276 11.1279 3.71199C11.0856 3.78122 11.0606 3.85893 11.0549 3.939C11.0601 4.01959 11.0849 4.0979 11.1272 4.16768C11.1695 4.23747 11.2282 4.29682 11.2986 4.341C11.4461 4.44063 11.5673 4.572 11.6525 4.72463C11.7377 4.87726 11.7845 5.0469 11.7892 5.22C11.785 5.39361 11.7384 5.56385 11.6532 5.71704C11.568 5.87022 11.4466 6.00208 11.2986 6.102C11.2445 6.14095 11.1787 6.162 11.1111 6.162C11.0626 6.162 11.0148 6.15116 10.9714 6.13033C10.928 6.1095 10.8902 6.07926 10.8611 6.042C10.8365 6.01048 10.8186 5.97462 10.8084 5.93646C10.7982 5.89829 10.796 5.85858 10.8018 5.81957C10.8076 5.78057 10.8213 5.74305 10.8422 5.70915C10.8631 5.67525 10.8908 5.64564 10.9236 5.622C10.9938 5.57783 11.0521 5.51843 11.0939 5.44859C11.1357 5.37875 11.1598 5.30044 11.1642 5.22C11.1596 5.14003 11.1354 5.06223 11.0936 4.99291C11.0518 4.92359 10.9935 4.8647 10.9236 4.821C10.7753 4.72123 10.6533 4.58948 10.5676 4.43631C10.4818 4.28315 10.4347 4.11282 10.4299 3.939V3.939ZM12.7986 4.821C12.8685 4.8647 12.9268 4.92359 12.9686 4.99291C13.0104 5.06223 13.0346 5.14003 13.0392 5.22C13.0348 5.30044 13.0107 5.37875 12.9689 5.44859C12.9271 5.51843 12.8688 5.57783 12.7986 5.622C12.7323 5.66974 12.6885 5.74081 12.6768 5.81957C12.665 5.89834 12.6864 5.97835 12.7361 6.042C12.7652 6.07926 12.803 6.1095 12.8464 6.13033C12.8898 6.15116 12.9376 6.162 12.9861 6.162C13.0537 6.162 13.1195 6.14095 13.1736 6.102C13.3216 6.00208 13.443 5.87022 13.5282 5.71704C13.6134 5.56385 13.66 5.39361 13.6642 5.22C13.6595 5.0469 13.6127 4.87726 13.5275 4.72463C13.4423 4.572 13.3211 4.44063 13.1736 4.341V4.341C13.1034 4.29683 13.0451 4.23743 13.0033 4.16759C12.9615 4.09775 12.9374 4.01944 12.933 3.939C12.9376 3.85903 12.9618 3.78123 13.0037 3.71191C13.0455 3.64259 13.1037 3.5837 13.1736 3.54C13.2399 3.49226 13.2838 3.42119 13.2955 3.34243C13.3072 3.26366 13.2858 3.18365 13.2361 3.12C13.1864 3.05635 13.1124 3.01427 13.0303 3.00302C12.9483 2.99176 12.8649 3.01226 12.7986 3.06C12.6511 3.15963 12.5299 3.291 12.4447 3.44363C12.3595 3.59626 12.3127 3.7659 12.308 3.939C12.3122 4.11261 12.3588 4.28285 12.444 4.43604C12.5292 4.58922 12.6507 4.72108 12.7986 4.821V4.821ZM9.04861 4.821C9.11854 4.8647 9.17677 4.92359 9.21857 4.99291C9.26038 5.06223 9.28459 5.14003 9.28924 5.22C9.28482 5.30044 9.26074 5.37875 9.21893 5.44859C9.17713 5.51843 9.11878 5.57783 9.04861 5.622C9.01578 5.64564 8.98812 5.67525 8.96722 5.70915C8.94631 5.74305 8.93256 5.78057 8.92675 5.81957C8.92095 5.85858 8.92321 5.89829 8.93339 5.93646C8.94358 5.97462 8.96149 6.01048 8.98611 6.042C9.01522 6.07926 9.05297 6.1095 9.09636 6.13033C9.13975 6.15116 9.1876 6.162 9.23611 6.162C9.30373 6.162 9.36952 6.14095 9.42361 6.102C9.57156 6.00208 9.69302 5.87022 9.77823 5.71704C9.86345 5.56385 9.91003 5.39361 9.91424 5.22C9.90954 5.0469 9.86273 4.87726 9.77754 4.72463C9.69235 4.572 9.57114 4.44063 9.42361 4.341V4.341C9.35345 4.29683 9.2951 4.23743 9.2533 4.16759C9.21149 4.09775 9.18741 4.01944 9.18299 3.939C9.18764 3.85903 9.21185 3.78123 9.25366 3.71191C9.29546 3.64259 9.35369 3.5837 9.42361 3.54C9.45644 3.51636 9.4841 3.48675 9.50501 3.45285C9.52592 3.41895 9.53967 3.38143 9.54547 3.34243C9.55128 3.30343 9.54902 3.26371 9.53884 3.22555C9.52865 3.18738 9.51074 3.15152 9.48611 3.12C9.46149 3.08848 9.43064 3.06193 9.39533 3.04186C9.36002 3.02179 9.32093 3.00859 9.28031 3.00302C9.23968 2.99744 9.19831 2.99961 9.15856 3.00939C9.1188 3.01916 9.08144 3.03636 9.04861 3.06C8.90108 3.15963 8.77988 3.291 8.69469 3.44363C8.6095 3.59626 8.56268 3.7659 8.55799 3.939C8.5622 4.11261 8.60878 4.28285 8.69399 4.43604C8.7792 4.58922 8.90067 4.72108 9.04861 4.821V4.821ZM10.7986 14.421V12.621C10.7517 12.528 10.7111 12.435 10.6736 12.339C10.658 12.303 10.6486 12.27 10.6361 12.234C10.6105 12.1723 10.5886 12.1092 10.5705 12.045C10.5705 12.006 10.5455 11.964 10.5361 11.925L10.4861 11.745C10.4861 11.703 10.4705 11.658 10.4611 11.613C10.4517 11.568 10.4392 11.502 10.433 11.445C10.4267 11.388 10.433 11.352 10.4174 11.307C10.4017 11.262 10.4174 11.196 10.4017 11.139C10.3861 11.082 10.4017 11.046 10.4017 11.001C10.3986 10.944 10.3986 10.887 10.4017 10.83C10.4017 10.785 10.4017 10.74 10.4017 10.695C10.4017 10.65 10.4017 10.581 10.4017 10.524C10.4017 10.467 10.4017 10.434 10.4174 10.389C10.433 10.344 10.4174 10.335 10.4174 10.308C10.1619 10.5699 9.96424 10.8788 9.83642 11.216C9.70859 11.5532 9.65321 11.9117 9.67361 12.27C9.67361 13.308 10.1736 14.208 10.7986 14.433V14.421ZM11.4236 12.537V14.421C12.0486 14.196 12.5486 13.296 12.5486 12.258C12.5486 11.058 11.9017 10.059 11.133 10.038L11.0924 10.248C10.9372 10.9777 11.0417 11.7362 11.3892 12.402C11.4135 12.4474 11.4254 12.498 11.4236 12.549V12.537ZM17.3611 17.7C17.3611 17.7796 17.3282 17.8559 17.2696 17.9121C17.211 17.9684 17.1315 18 17.0486 18H5.17361C5.09073 18 5.01125 17.9684 4.95264 17.9121C4.89404 17.8559 4.86111 17.7796 4.86111 17.7C4.86111 17.6204 4.89404 17.5441 4.95264 17.4879C5.01125 17.4316 5.09073 17.4 5.17361 17.4H6.69861L5.82674 7.827C5.82282 7.7854 5.828 7.74346 5.84194 7.70389C5.85588 7.66431 5.87828 7.62797 5.9077 7.59719C5.93712 7.56641 5.97291 7.54186 6.01278 7.52513C6.05265 7.50839 6.09572 7.49983 6.13924 7.5H16.0861C16.1296 7.49983 16.1727 7.50839 16.2126 7.52513C16.2524 7.54186 16.2882 7.56641 16.3177 7.59719C16.3471 7.62797 16.3695 7.66431 16.3834 7.70389C16.3974 7.74346 16.4025 7.7854 16.3986 7.827L15.5236 17.4H17.0486C17.1315 17.4 17.211 17.4316 17.2696 17.4879C17.3282 17.5441 17.3611 17.6204 17.3611 17.7ZM9.04861 12.27C9.04861 13.851 9.95486 15.09 11.1111 15.09C12.2674 15.09 13.1736 13.851 13.1736 12.27C13.1736 10.689 12.2674 9.45 11.1111 9.45C11.0529 9.44476 10.9943 9.44476 10.9361 9.45C10.897 9.44984 10.8581 9.45488 10.8205 9.465V9.465C9.78924 9.681 9.04861 10.854 9.04861 12.27ZM16.7892 13.47L16.1142 14.37L16.008 15.537L17.2955 13.821C17.5413 13.4935 17.7172 13.1226 17.8131 12.7296C17.9089 12.3366 17.9228 11.9292 17.854 11.531C17.7851 11.1328 17.6349 10.7516 17.4119 10.4094C17.189 10.0672 16.8977 9.77069 16.5549 9.537L16.4892 10.263C16.9349 10.6718 17.2118 11.2213 17.2693 11.8105C17.3267 12.3997 17.1607 12.9889 16.8017 13.47H16.7892Z" fill="#DE8A59"/>
</svg>
