<svg width="19" height="23" viewBox="0 0 19 23" fill="none" xmlns="http://www.w3.org/2000/svg">
<path d="M9.76422 6.19562C9.38495 5.45634 9.26907 4.61626 9.43469 3.80649L9.48813 3.54199C10.3788 3.54199 11.0913 4.65174 11.0913 6.01737C11.0913 7.20187 10.5183 8.22537 9.785 8.44674V6.32499C9.78844 6.28089 9.78133 6.23662 9.76422 6.19562V6.19562ZM9.02797 5.97712C9.00125 5.90237 8.97453 5.82762 8.95078 5.75287C8.92703 5.67812 8.92703 5.66949 8.91516 5.62637C8.90328 5.58324 8.87953 5.49124 8.86469 5.42224C8.84985 5.35324 8.84688 5.33024 8.83797 5.28424C8.82906 5.23824 8.81422 5.15199 8.80531 5.08587C8.79641 5.01974 8.80531 4.98812 8.79047 4.93924C8.77563 4.89037 8.77563 4.81274 8.77266 4.74662C8.76969 4.68049 8.77266 4.64599 8.77266 4.59712C8.77266 4.54824 8.77266 4.47062 8.77266 4.40737V4.25212C8.77266 4.19174 8.77266 4.12849 8.7875 4.06812C8.80235 4.00774 8.80235 3.96462 8.81125 3.90999C8.82016 3.85537 8.81125 3.81224 8.83203 3.76337C8.27391 4.15724 7.89094 5.02837 7.89094 6.01737C7.89094 7.20187 8.46391 8.22537 9.19719 8.44674V6.39112C9.14672 6.28762 9.09922 6.18412 9.05766 6.07774C9.04875 6.03749 9.03985 6.01162 9.02797 5.97712ZM8.57375 14.2255C7.19031 11.7875 4.86578 7.40312 4.86578 5.63787C4.86578 4.44761 5.35403 3.3061 6.22311 2.46446C7.0922 1.62282 8.27093 1.14999 9.5 1.14999C10.7291 1.14999 11.9078 1.62282 12.7769 2.46446C13.646 3.3061 14.1342 4.44761 14.1342 5.63787C14.1342 7.40312 11.8097 11.776 10.4263 14.2255C10.0225 14.9327 9.75828 15.3755 9.75828 15.3755C9.73239 15.4197 9.69484 15.4565 9.64947 15.4821C9.60409 15.5078 9.55252 15.5212 9.5 15.5212C9.44749 15.5212 9.39591 15.5078 9.35054 15.4821C9.30516 15.4565 9.26761 15.4197 9.24172 15.3755C9.24172 15.3755 8.9775 14.9327 8.57375 14.2255ZM9.5 9.06774C10.732 9.06774 11.6969 7.72799 11.6969 6.01737C11.6969 4.30674 10.732 2.96699 9.5 2.96699C9.43783 2.96064 9.37514 2.96064 9.31297 2.96699C9.27547 2.96318 9.23766 2.96318 9.20016 2.96699H9.17938C8.09281 3.18262 7.30313 4.45337 7.30313 5.98574C7.30313 7.72799 8.26797 9.06774 9.5 9.06774ZM11.2813 13.8H11.0022C10.8953 13.9897 10.7914 14.1795 10.6845 14.375C10.2808 15.0851 10.0136 15.525 10.0136 15.525C9.9614 15.6121 9.88649 15.6845 9.79635 15.7347C9.70621 15.785 9.60402 15.8115 9.5 15.8115C9.39598 15.8115 9.29379 15.785 9.20365 15.7347C9.11352 15.6845 9.0386 15.6121 8.98641 15.525C8.98641 15.525 8.71922 15.0736 8.31547 14.375C8.21156 14.191 8.10469 14.0041 7.99781 13.8H7.71875C7.24634 13.8 6.79327 13.9817 6.45922 14.3052C6.12517 14.6287 5.9375 15.0675 5.9375 15.525C5.9375 15.9825 6.12517 16.4213 6.45922 16.7448C6.79327 17.0683 7.24634 17.25 7.71875 17.25H11.2813C11.7537 17.25 12.2067 17.0683 12.5408 16.7448C12.8748 16.4213 13.0625 15.9825 13.0625 15.525C13.0625 15.0675 12.8748 14.6287 12.5408 14.3052C12.2067 13.9817 11.7537 13.8 11.2813 13.8Z" fill="#DE8A59"/>
</svg>
