<svg width="18" height="23" viewBox="0 0 18 23" fill="none" xmlns="http://www.w3.org/2000/svg">
<path d="M13.7812 18.0406H10.6875C11.6954 17.5573 12.5479 16.7908 13.1455 15.8306C13.7431 14.8705 14.0612 13.7564 14.0625 12.6184V10.2781C14.1371 10.2781 14.2086 10.2478 14.2614 10.1939C14.3141 10.14 14.3438 10.0669 14.3438 9.99063C14.3438 9.91438 14.3141 9.84125 14.2614 9.78733C14.2086 9.73342 14.1371 9.70313 14.0625 9.70313H2.25C2.17541 9.70313 2.10387 9.73342 2.05113 9.78733C1.99838 9.84125 1.96875 9.91438 1.96875 9.99063C1.96875 10.0669 1.99838 10.14 2.05113 10.1939C2.10387 10.2478 2.17541 10.2781 2.25 10.2781V12.5781C2.25136 13.7253 2.57244 14.8484 3.17564 15.8158C3.77884 16.7833 4.63919 17.555 5.65594 18.0406H2.53125C2.45666 18.0406 2.38512 18.0709 2.33238 18.1248C2.27963 18.1788 2.25 18.2519 2.25 18.3281C2.25 18.4044 2.27963 18.4775 2.33238 18.5314C2.38512 18.5853 2.45666 18.6156 2.53125 18.6156H13.7812C13.8558 18.6156 13.9274 18.5853 13.9801 18.5314C14.0329 18.4775 14.0625 18.4044 14.0625 18.3281C14.0625 18.2519 14.0329 18.1788 13.9801 18.1248C13.9274 18.0709 13.8558 18.0406 13.7812 18.0406ZM7.875 11.3131C7.90887 11.3034 7.94389 11.2986 7.97906 11.2988C8.03145 11.2937 8.08418 11.2937 8.13656 11.2988C9.17719 11.2988 9.99281 12.4861 9.99281 14.0013C9.99281 15.5164 9.17719 16.7038 8.13656 16.7038C7.09594 16.7038 6.28031 15.5164 6.28031 14.0013C6.3 12.6299 6.96656 11.5058 7.875 11.3131ZM7.50094 5.27563C7.50635 5.09709 7.55238 4.92229 7.63537 4.76509C7.71836 4.6079 7.83604 4.47263 7.97906 4.37C8.00861 4.34735 8.04223 4.33087 8.07801 4.3215C8.11379 4.31213 8.15102 4.31005 8.18759 4.31539C8.22415 4.32073 8.25933 4.33338 8.29111 4.35261C8.32289 4.37185 8.35065 4.3973 8.37281 4.4275C8.39497 4.45771 8.4111 4.49208 8.42026 4.52865C8.42943 4.56522 8.43146 4.60328 8.42624 4.64066C8.42101 4.67804 8.40864 4.71399 8.38982 4.74648C8.371 4.77897 8.34611 4.80735 8.31656 4.83C8.24337 4.87903 8.18237 4.94485 8.13843 5.02221C8.09449 5.09957 8.06881 5.18634 8.06344 5.27563C8.06838 5.36541 8.09386 5.45276 8.13782 5.53065C8.18178 5.60854 8.243 5.67481 8.31656 5.72413C8.45996 5.82704 8.57786 5.96277 8.66087 6.1205C8.74388 6.27823 8.78971 6.45359 8.79469 6.63263C8.78927 6.81117 8.74324 6.98596 8.66025 7.14316C8.57726 7.30036 8.45959 7.43563 8.31656 7.53825C8.26788 7.57558 8.20867 7.59575 8.14781 7.59575C8.10415 7.59575 8.06109 7.58536 8.02203 7.5654C7.98298 7.54544 7.94901 7.51646 7.92281 7.48075C7.90065 7.45055 7.88453 7.41618 7.87536 7.3796C7.8662 7.34303 7.86417 7.30497 7.86939 7.26759C7.87461 7.23022 7.88699 7.19426 7.9058 7.16177C7.92462 7.12929 7.94952 7.1009 7.97906 7.07825C8.05226 7.02922 8.11325 6.96341 8.15719 6.88605C8.20114 6.80869 8.22681 6.72191 8.23219 6.63263C8.22724 6.54284 8.20177 6.4555 8.15781 6.3776C8.11384 6.29971 8.05262 6.23344 7.97906 6.18413C7.83871 6.08146 7.72335 5.94715 7.6419 5.79161C7.56045 5.63607 7.51511 5.46345 7.50938 5.28713L7.50094 5.27563ZM9.18844 5.27563C9.19385 5.09709 9.23988 4.92229 9.32287 4.76509C9.40586 4.6079 9.52354 4.47263 9.66656 4.37C9.72624 4.32425 9.80124 4.30461 9.87509 4.31539C9.94893 4.32617 10.0156 4.3665 10.0603 4.4275C10.1051 4.4885 10.1243 4.56518 10.1137 4.64066C10.1032 4.71614 10.0637 4.78425 10.0041 4.83C9.93087 4.87903 9.86987 4.94485 9.82593 5.02221C9.78199 5.09957 9.75631 5.18634 9.75094 5.27563C9.75588 5.36541 9.78136 5.45276 9.82532 5.53065C9.86928 5.60854 9.9305 5.67481 10.0041 5.72413C10.1475 5.82704 10.2654 5.96277 10.3484 6.1205C10.4314 6.27823 10.4772 6.45359 10.4822 6.63263C10.4768 6.81117 10.4307 6.98596 10.3478 7.14316C10.2648 7.30036 10.1471 7.43563 10.0041 7.53825C9.95538 7.57558 9.89617 7.59575 9.83531 7.59575C9.79165 7.59575 9.74859 7.58536 9.70953 7.5654C9.67048 7.54544 9.63651 7.51646 9.61031 7.48075C9.56556 7.41975 9.54634 7.34308 9.55689 7.26759C9.56744 7.19211 9.60689 7.124 9.66656 7.07825C9.73976 7.02922 9.80075 6.96341 9.84469 6.88605C9.88864 6.80869 9.91431 6.72191 9.91969 6.63263C9.91474 6.54284 9.88927 6.4555 9.84531 6.3776C9.80134 6.29971 9.74012 6.23344 9.66656 6.18413C9.52621 6.08146 9.41085 5.94715 9.3294 5.79161C9.24795 5.63607 9.20261 5.46345 9.19688 5.28713L9.18844 5.27563ZM5.81344 5.27563C5.81885 5.09709 5.86488 4.92229 5.94787 4.76509C6.03086 4.6079 6.14854 4.47263 6.29156 4.37C6.35124 4.32425 6.42624 4.30461 6.50009 4.31539C6.57393 4.32617 6.64056 4.3665 6.68531 4.4275C6.70747 4.45771 6.7236 4.49208 6.73276 4.52865C6.74193 4.56522 6.74396 4.60328 6.73874 4.64066C6.73351 4.67804 6.72114 4.71399 6.70232 4.74648C6.6835 4.77897 6.65861 4.80735 6.62906 4.83C6.55587 4.87903 6.49487 4.94485 6.45093 5.02221C6.40699 5.09957 6.38131 5.18634 6.37594 5.27563C6.38088 5.36541 6.40636 5.45276 6.45032 5.53065C6.49428 5.60854 6.5555 5.67481 6.62906 5.72413C6.77246 5.82704 6.89036 5.96277 6.97337 6.1205C7.05638 6.27823 7.10221 6.45359 7.10719 6.63263C7.10177 6.81117 7.05574 6.98596 6.97275 7.14316C6.88976 7.30036 6.77209 7.43563 6.62906 7.53825C6.58038 7.57558 6.52117 7.59575 6.46031 7.59575C6.41665 7.59575 6.37359 7.58536 6.33453 7.5654C6.29548 7.54544 6.26151 7.51646 6.23531 7.48075C6.21315 7.45055 6.19703 7.41618 6.18786 7.3796C6.1787 7.34303 6.17667 7.30497 6.18189 7.26759C6.18711 7.23022 6.19949 7.19426 6.2183 7.16177C6.23712 7.12929 6.26202 7.1009 6.29156 7.07825C6.36476 7.02922 6.42575 6.96341 6.46969 6.88605C6.51363 6.80869 6.53931 6.72191 6.54469 6.63263C6.53974 6.54284 6.51427 6.4555 6.47031 6.3776C6.42635 6.29971 6.36512 6.23344 6.29156 6.18413C6.15121 6.08146 6.03585 5.94715 5.9544 5.79161C5.87295 5.63607 5.82761 5.46345 5.82188 5.28713L5.81344 5.27563ZM6.8625 13.9869C6.84786 13.6415 6.90215 13.2967 7.02206 12.9734C7.14197 12.6502 7.325 12.3552 7.56 12.1066C7.56 12.1325 7.56 12.1584 7.56 12.1843C7.56 12.2101 7.56 12.2705 7.54594 12.3136C7.53187 12.3568 7.54594 12.4229 7.54594 12.4775C7.54594 12.5321 7.54594 12.5638 7.54594 12.6069C7.54313 12.6615 7.54313 12.7162 7.54594 12.7708C7.54594 12.8139 7.54594 12.857 7.54594 12.903C7.54594 12.949 7.54594 13.0094 7.56 13.064C7.57406 13.1186 7.56 13.1503 7.57406 13.1963C7.58813 13.2423 7.59094 13.3026 7.59938 13.3573C7.60781 13.4119 7.61344 13.4435 7.62188 13.4838L7.66406 13.6534C7.66406 13.6908 7.68375 13.731 7.695 13.7684C7.71129 13.8299 7.73101 13.8903 7.75406 13.9495C7.75406 13.984 7.77375 14.0156 7.78781 14.0501C7.82156 14.1421 7.85813 14.2313 7.90031 14.3204V16.0454C7.3125 15.8441 6.8625 14.9816 6.8625 13.9869ZM8.40656 14.1249C8.0938 13.4868 7.99971 12.7599 8.13938 12.0606L8.17594 11.8594C8.86781 11.8795 9.45 12.8455 9.45 13.9869C9.45 14.9816 9.00844 15.8441 8.4375 16.0598V14.2543C8.43724 14.2092 8.42664 14.1649 8.40656 14.1249V14.1249ZM13.8319 15.1254C13.9308 14.8954 14.0154 14.6591 14.085 14.4181C15.2916 13.823 15.4688 12.3309 15.4688 11.7156H14.3438V11.1406H15.75C15.8218 11.1405 15.8909 11.1684 15.9431 11.2186C15.9954 11.2689 16.0269 11.3377 16.0312 11.4109C16.1016 12.5206 15.705 14.605 13.8319 15.1254V15.1254Z" fill="#DE8A59"/>
</svg>
